<svg width="155" height="202" viewBox="0 0 155 202" fill="none" xmlns="http://www.w3.org/2000/svg">
<path d="M7.73438 2.26776C-0.265625 6.53443 0.00104167 3.6011 0.00104167 102.268V192.401L4.53438 196.934L9.06771 201.468H76.9344C151.334 201.468 148.401 201.734 152.668 193.468C154.401 190.134 154.668 177.068 154.668 101.468C154.668 4.4011 154.801 6.4011 146.534 2.13443C140.934 -0.798904 13.0677 -0.66557 7.73438 2.26776ZM129.334 25.4678C129.334 37.6011 120.534 84.1344 118.134 84.1344C117.334 84.1344 111.201 82.1344 104.534 79.6011C98.001 77.2011 90.6677 74.6678 88.401 74.2678L84.401 73.3344L81.4677 86.8011C80.001 94.1344 78.6677 101.068 78.6677 102.001C78.6677 103.334 83.601 102.534 99.0677 98.6678C110.134 95.8678 120.134 93.4678 121.201 93.4678C122.668 93.4678 122.934 96.8011 122.401 111.334C122.134 121.201 121.601 129.734 121.068 130.134C120.534 130.668 110.534 128.268 98.801 124.934C87.0677 121.601 76.9344 118.801 76.2677 118.801C75.0677 118.801 71.0677 146.534 69.601 165.468C68.801 175.734 68.401 176.934 65.3344 178.401C61.7344 180.268 48.5344 180.801 47.601 179.068C45.8677 176.401 36.9344 134.001 34.001 115.334C29.7344 87.4678 26.401 58.9344 26.1344 48.2678L26.001 39.7344L32.001 38.0011C57.3344 30.2678 102.001 22.2678 123.734 21.6011C129.068 21.4678 129.334 21.6011 129.334 25.4678Z" fill="#B0E8BD"/>
</svg>
