<svg width="660" height="202" viewBox="0 0 660 202" fill="none" xmlns="http://www.w3.org/2000/svg">
<path d="M7.73438 2.26776C-0.265625 6.53443 0.00104167 3.6011 0.00104167 102.268V192.401L4.53438 196.934L9.06771 201.468H76.9344C151.334 201.468 148.401 201.734 152.668 193.468C154.401 190.134 154.668 177.068 154.668 101.468C154.668 4.4011 154.801 6.4011 146.534 2.13443C140.934 -0.798904 13.0677 -0.66557 7.73438 2.26776ZM129.334 25.4678C129.334 37.6011 120.534 84.1344 118.134 84.1344C117.334 84.1344 111.201 82.1344 104.534 79.6011C98.001 77.2011 90.6677 74.6678 88.401 74.2678L84.401 73.3344L81.4677 86.8011C80.001 94.1344 78.6677 101.068 78.6677 102.001C78.6677 103.334 83.601 102.534 99.0677 98.6678C110.134 95.8678 120.134 93.4678 121.201 93.4678C122.668 93.4678 122.934 96.8011 122.401 111.334C122.134 121.201 121.601 129.734 121.068 130.134C120.534 130.668 110.534 128.268 98.801 124.934C87.0677 121.601 76.9344 118.801 76.2677 118.801C75.0677 118.801 71.0677 146.534 69.601 165.468C68.801 175.734 68.401 176.934 65.3344 178.401C61.7344 180.268 48.5344 180.801 47.601 179.068C45.8677 176.401 36.9344 134.001 34.001 115.334C29.7344 87.4678 26.401 58.9344 26.1344 48.2678L26.001 39.7344L32.001 38.0011C57.3344 30.2678 102.001 22.2678 123.734 21.6011C129.068 21.4678 129.334 21.6011 129.334 25.4678Z" fill="#B0E8BD"/>
<path d="M189.601 64.4011C186.001 68.0011 188.134 71.7344 201.068 84.5344C213.868 97.3344 217.601 99.3344 221.068 95.8678C224.134 92.8011 222.668 88.6678 216.001 82.1344L209.201 75.4678L227.468 74.8011C244.001 74.1344 245.868 73.8678 247.468 71.4678C249.068 69.0678 248.934 68.2678 247.201 65.7344C245.201 62.9344 244.534 62.8011 218.134 62.8011C198.934 62.8011 190.801 63.2011 189.601 64.4011Z" fill="#B0E8BD"/>
<path d="M434.268 65.2011C431.468 68.2678 431.468 70.0011 434.134 72.6678C435.734 74.4011 439.334 74.8011 451.068 74.8011H465.868L448.934 91.8678C439.601 101.334 432.001 110.001 432.001 111.068C432.001 113.468 436.134 117.468 438.668 117.468C439.734 117.468 450.934 107.201 463.601 94.5344C495.068 63.3344 494.934 62.8011 460.001 62.8011C438.801 62.8011 436.134 63.0678 434.268 65.2011Z" fill="#B0E8BD"/>
<path d="M256.535 84.6681C254.268 86.4014 254.001 88.6681 253.601 107.601C253.068 133.068 253.601 137.068 258.268 139.201C261.201 140.535 262.001 140.268 264.135 137.601C266.401 134.801 266.668 132.001 266.668 111.335C266.668 89.8681 266.401 87.8681 264.001 85.4681C260.801 82.2681 260.001 82.2681 256.535 84.6681Z" fill="#B0E8BD"/>
<path d="M274.401 84.2681C272.268 85.4681 272.001 88.2681 272.001 111.601V137.468L275.334 139.068C278.134 140.268 279.068 140.135 281.334 138.135C283.734 136.001 284.001 134.001 284.001 118.801C284.001 104.535 284.401 101.335 286.401 98.9347C289.601 94.9347 296.534 94.8014 300.401 98.6681C303.068 101.335 303.334 103.068 303.734 119.601C304.268 137.468 304.268 137.601 307.601 139.201C310.534 140.535 311.334 140.268 313.468 137.601C317.068 133.068 317.068 104.668 313.468 96.6681C308.801 86.5347 297.868 81.0681 287.868 84.0014C283.868 85.2014 281.868 85.2014 280.934 84.2681C279.201 82.5347 277.334 82.5347 274.401 84.2681Z" fill="#B0E8BD"/>
<path d="M341.068 84.6679C329.068 89.0679 322.534 97.2013 321.601 108.935C320.001 128.668 338.001 144.001 356.668 138.801C360.001 137.868 363.068 136.535 363.468 135.868C364.001 135.201 365.734 136.001 367.468 137.601C370.134 140.135 371.068 140.401 374.001 139.068L377.334 137.468V111.468V85.4679L374.001 83.8679C371.068 82.5346 370.134 82.6679 367.868 85.0679C365.334 87.4679 364.668 87.6013 361.468 86.0013C355.734 83.2013 346.668 82.5346 341.068 84.6679ZM357.734 97.7346C361.334 99.6013 365.334 106.935 365.334 111.601C365.334 121.468 354.001 129.868 344.668 126.801C337.334 124.401 334.001 119.601 334.001 111.468C334.001 105.735 334.668 103.601 337.201 100.935C342.534 95.3346 350.534 94.0013 357.734 97.7346Z" fill="#B0E8BD"/>
<path d="M384.934 85.2013C382.934 87.3347 382.668 90.9346 382.668 111.735C382.668 134.001 382.801 135.868 385.334 138.135C387.468 140.135 388.668 140.268 391.201 139.068C394.401 137.601 394.534 137.201 394.934 119.601C395.334 103.068 395.601 101.335 398.268 98.668C402.134 94.8013 409.068 94.9347 412.268 98.9347C414.268 101.335 414.668 104.535 414.668 118.801C414.668 134.001 414.934 136.001 417.334 138.135C419.601 140.135 420.534 140.268 423.334 139.068C426.668 137.468 426.668 137.468 426.668 118.668C426.668 96.8013 425.334 92.668 416.934 87.068C411.468 83.468 411.068 83.468 395.734 84.268C394.001 84.4013 391.468 84.0013 390.001 83.6013C388.134 82.9347 386.534 83.468 384.934 85.2013Z" fill="#B0E8BD"/>
<path d="M511.601 84.6681C496.801 90.0015 488.801 105.335 493.334 119.601C500.134 141.068 526.534 146.668 541.201 130.001C552.134 117.601 550.668 100.268 538.001 89.7348C529.868 83.2015 520.934 81.4681 511.601 84.6681ZM532.401 101.468C542.934 113.201 530.134 131.468 514.934 126.401C500.001 121.468 501.068 99.4681 516.401 96.1348C522.401 94.9348 528.001 96.8015 532.401 101.468Z" fill="#B0E8BD"/>
<path d="M556.668 84.6676C554.268 86.4009 554.001 88.5343 553.601 110.668C553.201 133.334 553.334 134.801 555.868 137.334C559.334 140.801 560.668 140.801 564.001 137.468C566.401 135.068 566.668 133.068 566.668 117.734C566.668 102.268 566.934 100.268 569.334 98.1343C572.801 95.0676 579.201 95.0676 582.668 98.1343C585.068 100.268 585.334 102.268 585.334 117.468C585.334 131.868 585.734 134.934 587.734 137.468C589.601 139.734 590.934 140.268 593.201 139.468C597.468 138.134 598.668 133.601 598.668 119.734C598.534 97.7343 596.001 91.3343 585.201 85.7343C580.668 83.3343 578.134 82.8009 574.001 83.4676C566.801 84.6676 563.734 84.8009 561.334 83.6009C560.134 83.2009 558.134 83.6009 556.668 84.6676Z" fill="#B0E8BD"/>
<path d="M621.734 84.9346C614.001 87.7346 605.868 97.2013 604.134 105.201C599.334 128.135 623.468 147.468 643.868 136.801C647.201 135.201 647.734 135.201 649.734 137.601C652.401 140.668 655.068 140.801 657.868 138.001C659.601 136.268 660.001 132.001 660.001 111.601C660.001 89.2013 659.734 87.068 657.468 84.9346C654.534 82.268 650.001 83.068 648.801 86.268C648.134 88.0013 647.601 88.0013 644.001 86.1346C638.001 83.068 628.268 82.5346 621.734 84.9346ZM642.801 99.6013C646.001 102.535 648.668 110.935 647.601 115.068C644.401 127.868 628.001 131.468 619.468 121.335C612.401 112.935 616.668 99.068 627.068 96.4013C632.268 95.068 639.334 96.4013 642.801 99.6013Z" fill="#B0E8BD"/>
<path d="M189.601 87.0678C186.534 90.1345 188.001 94.1345 194.934 101.068L201.868 108.134H197.068C189.334 108.134 188.001 110.534 188.001 124.134C188.001 133.068 188.534 136.401 190.134 138.001C195.468 143.334 200.001 138.801 200.001 128.001V120.134H209.734C227.201 120.134 227.201 115.868 209.601 98.4012C196.801 85.6012 193.068 83.6012 189.601 87.0678Z" fill="#B0E8BD"/>
<path d="M454.934 108.535C442.268 121.201 432.001 132.535 432.001 133.735C432.001 134.801 433.068 136.668 434.401 137.868C436.534 139.735 440.268 140.135 459.734 140.135C483.734 140.135 486.668 139.468 486.668 133.601C486.668 128.935 483.868 128.135 468.134 128.135H452.668L469.734 111.068C486.401 94.4014 488.668 90.6681 485.068 87.0681C481.201 83.2014 477.734 85.7348 454.934 108.535Z" fill="#B0E8BD"/>
</svg>
